<svg xmlns="http://www.w3.org/2000/svg" xmlns:xlink="http://www.w3.org/1999/xlink" width="100" zoomAndPan="magnify" viewBox="0 0 75 74.999997" height="100" preserveAspectRatio="xMidYMid meet" version="1.0"><defs><clipPath id="62683f8df4"><path d="M 16 19 L 67.5 19 L 67.5 74.414062 L 16 74.414062 Z M 16 19 " clip-rule="nonzero"/></clipPath><clipPath id="77dd8e656b"><path d="M 7.5 2 L 37 2 L 37 34 L 7.5 34 Z M 7.5 2 " clip-rule="nonzero"/></clipPath><clipPath id="1f58a0da6d"><path d="M 39 0.914062 L 50 0.914062 L 50 11 L 39 11 Z M 39 0.914062 " clip-rule="nonzero"/></clipPath></defs><g clip-path="url(#62683f8df4)"><path fill="#ffffff" d="M 42.285156 19.859375 L 42.210938 19.859375 C 41.824219 42.667969 38.679688 46.21875 16.589844 46.714844 L 16.589844 46.839844 C 38.800781 47.339844 41.855469 50.929688 42.214844 74.074219 L 42.28125 74.074219 C 42.636719 51.078125 45.65625 47.386719 67.476562 46.851562 L 67.476562 46.703125 C 45.773438 46.171875 42.667969 42.519531 42.285156 19.859375 " fill-opacity="1" fill-rule="nonzero"/></g><g clip-path="url(#77dd8e656b)"><path fill="#ffffff" d="M 22.03125 2.4375 L 21.988281 2.4375 C 21.769531 15.304688 20 17.308594 7.535156 17.589844 L 7.535156 17.660156 C 20.066406 17.941406 21.789062 19.96875 21.992188 33.027344 L 22.027344 33.027344 C 22.230469 20.050781 23.933594 17.96875 36.246094 17.664062 L 36.246094 17.582031 C 24 17.28125 22.25 15.222656 22.03125 2.4375 " fill-opacity="1" fill-rule="nonzero"/></g><path fill="#ffffff" d="M 58.835938 16.625 L 58.8125 16.625 C 58.695312 23.523438 57.742188 24.597656 51.0625 24.75 L 51.0625 24.789062 C 57.78125 24.9375 58.703125 26.023438 58.8125 33.027344 L 58.832031 33.027344 C 58.941406 26.070312 59.851562 24.953125 66.453125 24.789062 L 66.453125 24.746094 C 59.890625 24.585938 58.949219 23.480469 58.835938 16.625 " fill-opacity="1" fill-rule="nonzero"/><g clip-path="url(#1f58a0da6d)"><path fill="#ffffff" d="M 44.488281 0.914062 L 44.472656 0.914062 C 44.402344 5.148438 43.820312 5.808594 39.71875 5.902344 L 39.71875 5.925781 C 43.839844 6.019531 44.410156 6.683594 44.476562 10.980469 L 44.488281 10.980469 C 44.554688 6.710938 45.113281 6.027344 49.167969 5.925781 L 49.167969 5.898438 C 45.136719 5.800781 44.558594 5.121094 44.488281 0.914062 " fill-opacity="1" fill-rule="nonzero"/></g></svg>